<svg xmlns="http://www.w3.org/2000/svg" enable-background="new 0 0 32 32" viewBox="0 0 32 32" id="rainy-day">
  <path fill="#61ccf8" d="M6 32c-.552 0-1-.448-1-1v-2c0-.552.448-1 1-1s1 .448 1 1v2C7 31.552 6.552 32 6 32zM12 32c-.552 0-1-.448-1-1v-2c0-.552.448-1 1-1s1 .448 1 1v2C13 31.552 12.552 32 12 32zM18 32c-.552 0-1-.448-1-1v-2c0-.552.448-1 1-1s1 .448 1 1v2C19 31.552 18.552 32 18 32zM24 32c-.552 0-1-.448-1-1v-2c0-.552.448-1 1-1s1 .448 1 1v2C25 31.552 24.552 32 24 32z"></path>
  <linearGradient id="a" x1="14.934" x2="29.066" y1="17.066" y2="2.934" gradientUnits="userSpaceOnUse">
    <stop offset="0" stop-color="#fdca00"></stop>
    <stop offset="1" stop-color="#fff442"></stop>
  </linearGradient>
  <circle cx="22" cy="10" r="10" fill="url(#a)"></circle>
  <linearGradient id="b" x1="0" x2="30" y1="16" y2="16" gradientUnits="userSpaceOnUse">
    <stop offset="0" stop-color="#cde2ff"></stop>
    <stop offset="1" stop-color="#f7f3f1"></stop>
  </linearGradient>
  <path fill="url(#b)" d="M30,21c0,2.76-2.24,5-5,5H7
			c-3.86,0-7-3.14-7-7c0-2.83,1.76-5.42,4.35-6.48C5.44,8.71,8.99,6,13,6c3.93,0,7.37,2.52,8.56,6.21c1.92,0.52,3.47,1.96,4.11,3.84
			C28.11,16.38,30,18.47,30,21z"></path>
</svg>
