<svg xmlns="http://www.w3.org/2000/svg" viewBox="0 0 64 64" id="rainy-season">
  <path fill="#fff176" d="M41,12a10.9615,10.9615,0,0,0-9.7246,5.8643,1,1,0,0,0,.6733,1.4433,14.0561,14.0561,0,0,1,9.8282,7.98,1,1,0,0,0,1.31.51,10.0907,10.0907,0,0,1,6.9683-.3262,1.0028,1.0028,0,0,0,1.2422-.6026A11,11,0,0,0,41,12Z"></path>
  <path fill="#4fc3f7" d="M50.665,25.5674a12.1314,12.1314,0,0,0-7.4746.05A15.9935,15.9935,0,0,0,13.1255,31.042,9,9,0,0,0,14,49h6a1.0246,1.0246,0,0,0,1-.999,7.5136,7.5136,0,0,1,1-2.1455A7.5122,7.5122,0,0,1,23,48a1,1,0,0,0,1,1H40a1.0246,1.0246,0,0,0,1-.999,7.5136,7.5136,0,0,1,1-2.1455A7.5122,7.5122,0,0,1,43,48a1,1,0,0,0,1,1h3a12.0035,12.0035,0,0,0,3.665-23.4326Z"></path>
  <path fill="#fff" d="M37.1992,33a1,1,0,0,1-.89-1.4551A12.03,12.03,0,0,1,42.2979,25.96a1,1,0,0,1,.7841,1.84,10.0306,10.0306,0,0,0-4.9912,4.6553A1.0006,1.0006,0,0,1,37.1992,33Z"></path>
  <path fill="#81d4fa" d="M32.8228 51.4316a1.0371 1.0371 0 0 0-1.6456 0C30.5225 52.38 29 54.7217 29 56a3 3 0 0 0 6 0C35 54.7217 33.4775 52.38 32.8228 51.4316zM22.8232 43.4326a1.0379 1.0379 0 0 0-1.6464 0C20.5225 44.3818 19 46.7266 19 48a3 3 0 0 0 6 0C25 46.7266 23.4775 44.3818 22.8232 43.4326zM42.8232 43.4326a1.0379 1.0379 0 0 0-1.6464 0C40.5225 44.3818 39 46.7266 39 48a3 3 0 0 0 6 0C45 46.7266 43.4775 44.3818 42.8232 43.4326z"></path>
  <path fill="#ffd54f" d="M41 10a1 1 0 0 1-1-1V6a1 1 0 0 1 2 0V9A1 1 0 0 1 41 10zM47.999 11.876a1 1 0 0 1-.8652-1.5l1.5-2.5987a1 1 0 0 1 1.7324 1l-1.5 2.5987A1.0011 1.0011 0 0 1 47.999 11.876zM53.1255 17a1 1 0 0 1-.501-1.8662l2.5982-1.5a1 1 0 1 1 1 1.7324l-2.5982 1.5A.9973.9973 0 0 1 53.1255 17zM58 24H55a1 1 0 0 1 0-2h3a1 1 0 0 1 0 2zM34.001 11.876a1.0011 1.0011 0 0 1-.8672-.5l-1.5-2.5987a1 1 0 1 1 1.7324-1l1.5 2.5987a1 1 0 0 1-.8652 1.5z"></path>
</svg>
