<svg xmlns="http://www.w3.org/2000/svg" width="32" height="32" id="rain">
  <path fill="#8be1fc" d="M31.116 14.567a12.375 12.375 0 0 1-12.375 12.375A12.375 12.375 0 0 1 6.366 14.567 12.375 12.375 0 0 1 18.741 2.192a12.375 12.375 0 0 1 12.375 12.375z"></path>
  <g fill="#3a3640" color="#000" font-family="sans-serif" font-weight="400">
    <path fill-rule="evenodd" d="M719.567 1577.362a.5.5 0 0 0-.37.205l-3 3.997a.5.5 0 0 0 .524.785l2.629-.66-2.152 2.867a.5.5 0 1 0 .8.6l3-3.996a.5.5 0 0 0-.521-.786l-2.63.662 2.151-2.869a.5.5 0 0 0-.431-.805zm10.016.748a.5.5 0 0 0-.344.153l-1.49 1.49a.5.5 0 1 0 .707.707l1.49-1.49a.5.5 0 0 0-.363-.86zm-4.5 0a.5.5 0 0 0-.343.153l-1.49 1.49a.5.5 0 1 0 .707.707l1.49-1.49a.5.5 0 0 0-.363-.86zm-11.498 0a.5.5 0 0 0-.344.153l-1.49 1.49a.5.5 0 1 0 .707.707l1.49-1.49a.5.5 0 0 0-.363-.86zm-4.5 0a.5.5 0 0 0-.343.153l-1.49 1.49a.5.5 0 1 0 .707.707l1.49-1.49a.5.5 0 0 0-.364-.86zm20.502 4.003a.5.5 0 0 0-.344.15l-1.49 1.49a.5.5 0 1 0 .707.708l1.49-1.49a.5.5 0 0 0-.363-.858zm-4.5 0a.5.5 0 0 0-.343.15l-1.49 1.49a.5.5 0 1 0 .707.708l1.49-1.49a.5.5 0 0 0-.364-.858zm-11.498 0a.5.5 0 0 0-.344.15l-1.49 1.49a.5.5 0 1 0 .707.708l1.49-1.49a.5.5 0 0 0-.363-.858zm-4.5 0a.5.5 0 0 0-.343.15l-1.49 1.49a.5.5 0 1 0 .707.708l1.49-1.49a.5.5 0 0 0-.364-.858zm-3.982-12.254a.5.5 0 1 0 0 1h2.486a.5.5 0 1 0 0-1zm3.992-7.501a.5.5 0 0 0-.348.86l1.99 1.99a.5.5 0 1 0 .707-.707l-1.99-1.99a.5.5 0 0 0-.359-.153z" overflow="visible" style="line-height:normal;text-indent:0;text-align:start;text-decoration-line:none;text-decoration-style:solid;text-decoration-color:#000;text-transform:none;white-space:normal;isolation:auto;mix-blend-mode:normal;solid-color:#000;solid-opacity:1" transform="translate(-703.715 -1555.55)"></path>
    <path d="M718.598 1565.359c-4.412 0-8 3.588-8 8h1a6.993 6.993 0 0 1 7-7c3.871 0 7 3.128 7 7h1c0-4.412-3.588-8-8-8z" overflow="visible" style="line-height:normal;text-indent:0;text-align:start;text-decoration-line:none;text-decoration-style:solid;text-decoration-color:#000;text-transform:none;white-space:normal;isolation:auto;mix-blend-mode:normal;solid-color:#000;solid-opacity:1" transform="translate(-703.715 -1555.55)"></path>
    <path fill-rule="evenodd" d="M718.59 1559.36a.5.5 0 0 0-.492.508v2.344a.5.5 0 1 0 1 0v-2.344a.5.5 0 0 0-.508-.508zm-9.983 14a.5.5 0 1 0 0 1h19.984a.5.5 0 1 0 0-1z" overflow="visible" style="line-height:normal;text-indent:0;text-align:start;text-decoration-line:none;text-decoration-style:solid;text-decoration-color:#000;text-transform:none;white-space:normal;isolation:auto;mix-blend-mode:normal;solid-color:#000;solid-opacity:1" transform="translate(-703.715 -1555.55)"></path>
    <path fill-rule="evenodd" d="M718.59 1559.358a.5.5 0 0 0-.492.508v2.486a.5.5 0 1 0 1 0v-2.487a.5.5 0 0 0-.508-.507zm9.493 3.002a.5.5 0 0 0-.343.15l-1.99 1.99a.5.5 0 1 0 .706.708l1.99-1.99a.5.5 0 0 0-.363-.858zm1.522 7.5a.5.5 0 1 0 0 1h2.486a.5.5 0 1 0 0-1z" overflow="visible" style="line-height:normal;text-indent:0;text-align:start;text-decoration-line:none;text-decoration-style:solid;text-decoration-color:#000;text-transform:none;white-space:normal;isolation:auto;mix-blend-mode:normal;solid-color:#000;solid-opacity:1" transform="translate(-703.715 -1555.55)"></path>
  </g>
</svg>
