<svg xmlns="http://www.w3.org/2000/svg" width="32" height="32" id="rain">
  <path fill="#8be1fc" d="M29.337 15.785A12.375 12.375 0 0 1 16.962 28.16 12.375 12.375 0 0 1 4.587 15.785 12.375 12.375 0 0 1 16.962 3.41a12.375 12.375 0 0 1 12.375 12.375z"></path>
  <g fill="#3a3640" color="#000" font-family="sans-serif" font-weight="400">
    <path d="M643.074 1563.946a6.992 6.992 0 0 0-7.27 3.649 5.23 5.23 0 0 0-5.355 1.392 5.255 5.255 0 0 0-.97 5.814 5.253 5.253 0 0 0 5.042 3.051l7.48.01h.002a7.004 7.004 0 0 0 6.975-6.463 7.005 7.005 0 0 0-5.904-7.453zm-.155.988a5.993 5.993 0 0 1 5.06 6.389 5.992 5.992 0 0 1-5.976 5.539l-7.507-.01h-.027a4.247 4.247 0 0 1-4.082-2.47 4.248 4.248 0 0 1 .785-4.708c1.112-1.166 2.805-1.58 4.23-1.158a8.486 8.486 0 0 0-.217.738c-.137.622.812.87.973.23a5.994 5.994 0 0 1 6.761-4.552z" overflow="visible" style="line-height:normal;text-indent:0;text-align:start;text-decoration-line:none;text-decoration-style:solid;text-decoration-color:#000;text-transform:none;white-space:normal;isolation:auto;mix-blend-mode:normal;solid-color:#000;solid-opacity:1" transform="translate(-627 -1557.362)"></path>
    <path d="M648.42 1562.358a4.508 4.508 0 0 0-3.841 2.29.5.5 0 1 0 .87.49 3.495 3.495 0 0 1 4.202-1.586 3.497 3.497 0 0 1 2.304 3.855 3.493 3.493 0 0 1-3.384 2.95.5.5 0 1 0 .02 1 4.506 4.506 0 0 0 4.352-3.793 4.505 4.505 0 0 0-4.523-5.206z" overflow="visible" style="line-height:normal;text-indent:0;text-align:start;text-decoration-line:none;text-decoration-style:solid;text-decoration-color:#000;text-transform:none;white-space:normal;isolation:auto;mix-blend-mode:normal;solid-color:#000;solid-opacity:1" transform="translate(-627 -1557.362)"></path>
    <path fill-rule="evenodd" d="M648.49 1558.362a.5.5 0 0 0-.492.506v1.487a.5.5 0 1 0 1 0v-1.487a.5.5 0 0 0-.508-.506zm6.516 8a.5.5 0 1 0 0 1h1.486a.5.5 0 1 0 0-1zm-12.007-5.5a.5.5 0 0 0-.348.858l.99.99a.5.5 0 1 0 .707-.707l-.99-.99a.5.5 0 0 0-.36-.15zm10.983 0a.5.5 0 0 0-.341.15l-.99.991a.5.5 0 1 0 .706.707l.99-.99a.5.5 0 0 0-.365-.858zm-.984 9.995a.5.5 0 0 0-.348.86l.99.99a.5.5 0 1 0 .708-.708l-.99-.99a.5.5 0 0 0-.36-.152zm-3.264 10.005a.5.5 0 0 0-.343.15l-1.488 1.49a.5.5 0 1 0 .707.708l1.49-1.49a.5.5 0 0 0-.366-.858zm-6.25 0a.5.5 0 0 0-.343.15l-1.488 1.49a.5.5 0 1 0 .707.708l1.49-1.49a.5.5 0 0 0-.365-.858zm-6.25 0a.5.5 0 0 0-.343.15l-1.488 1.49a.5.5 0 1 0 .707.708l1.49-1.49a.5.5 0 0 0-.365-.858zm-6.249 0a.5.5 0 0 0-.344.15l-1.488 1.49a.5.5 0 1 0 .707.708l1.49-1.49a.5.5 0 0 0-.365-.858zm14.5 5a.5.5 0 0 0-.344.15l-1.488 1.49a.5.5 0 1 0 .707.707l1.49-1.49a.5.5 0 0 0-.365-.857zm-6.25 0a.5.5 0 0 0-.344.15l-1.488 1.49a.5.5 0 1 0 .707.707l1.49-1.49a.5.5 0 0 0-.365-.857zm-6.25 0a.5.5 0 0 0-.344.15l-1.488 1.49a.5.5 0 1 0 .707.707l1.49-1.49a.5.5 0 0 0-.365-.857z" overflow="visible" style="line-height:normal;text-indent:0;text-align:start;text-decoration-line:none;text-decoration-style:solid;text-decoration-color:#000;text-transform:none;white-space:normal;isolation:auto;mix-blend-mode:normal;solid-color:#000;solid-opacity:1" transform="translate(-627 -1557.362)"></path>
  </g>
</svg>
