<svg xmlns="http://www.w3.org/2000/svg" width="655.359" height="655.359" fill-rule="evenodd" clip-rule="evenodd" image-rendering="optimizeQuality" shape-rendering="geometricPrecision" text-rendering="geometricPrecision" viewBox="0 0 6.827 6.827" id="summer">
  <path fill="#d68735" d="m4.636 1.418.031.197h-.062zM4.821 1.442 4.8 1.64l-.06-.016zM4.993 1.514l-.071.185-.054-.031zM5.141 1.627l-.117.161-.044-.044zM5.254 1.775 5.1 1.9l-.031-.054zM5.326 1.947l-.182.081-.016-.06zM5.35 2.132l-.196.031v-.062zM5.326 2.317l-.198-.021.016-.06zM5.254 2.489l-.185-.071.031-.054zM5.141 2.637 4.98 2.52l.044-.044zM4.993 2.75l-.125-.154.054-.032zM4.821 2.821 4.74 2.64l.06-.016zM4.636 2.846l-.031-.197h.062zM4.451 2.821l.021-.197.06.016zM4.279 2.75l.072-.186.053.032zM4.131 2.637l.117-.161.044.044zM4.018 2.489l.155-.125.031.054zM3.947 2.317l.181-.081.016.06zM3.922 2.132l.197-.031v.062zM3.947 1.947l.197.021-.016.06zM4.018 1.775l.186.071-.031.054zM4.131 1.627l.161.117-.044.044zM4.279 1.514l.125.154-.053.031zM4.451 1.442l.081.182-.06.016z"></path>
  <path fill="#eb9439" d="M4.252 1.748a.542.542 0 0 1 .927.384.542.542 0 0 1-.927.384.542.542 0 0 1 0-.768z"></path>
  <path fill="#78909c" d="M1.608 2.681a.99.99 0 0 0 0 .025.887.887 0 0 0 .19 1.753H4.91a.884.884 0 0 0 .887-.887.883.883 0 0 0-.7-.867 1.135 1.135 0 0 0-1.41-.64 1.136 1.136 0 0 0-.949-.515 1.127 1.127 0 0 0-1.13 1.131z"></path>
  <path fill="#1e88e5" d="M2.484 4.734c-.055.102-.218.408 0 .434a.23.23 0 0 0 .004 0c.212-.03.05-.332-.004-.434zm1.16 0c-.054.102-.218.408 0 .434h.004c.213-.03.051-.332-.004-.434zm1.161 0c-.055.102-.218.408 0 .434a.23.23 0 0 0 .004 0c.212-.03.05-.332-.004-.434zm-1.735.805c-.054.103-.218.409 0 .434a.23.23 0 0 0 .004 0c.212-.03.051-.332-.004-.434zm1.149 0c-.055.103-.218.409 0 .434h.004c.212-.03.05-.332-.004-.434zm-2.316-.805c-.054.102-.218.408 0 .434h.004c.212-.03.051-.332-.004-.434zm1.161 0c-.055.102-.218.408 0 .434h.004c.212-.03.05-.332-.004-.434zm1.16 0c-.054.102-.217.408 0 .434a.23.23 0 0 0 .005 0c.212-.03.05-.332-.004-.434zm-1.728.805c-.055.103-.218.409 0 .434a.23.23 0 0 0 .004 0c.212-.03.05-.332-.004-.434zm1.149 0c-.055.103-.218.409 0 .434a.23.23 0 0 0 .004 0c.212-.03.05-.332-.004-.434z"></path>
  <path fill="none" d="M0 0h6.827v6.827H0z"></path>
</svg>
