<svg xmlns="http://www.w3.org/2000/svg" width="32" height="32" id="snowfall">
  <path fill="#ffbbec" d="M28.366 15.491a12.375 12.375 0 0 1-12.375 12.375A12.375 12.375 0 0 1 3.616 15.491 12.375 12.375 0 0 1 15.991 3.116a12.375 12.375 0 0 1 12.375 12.375z"></path>
  <g fill="#3a3640" fill-rule="evenodd" color="#000" font-family="sans-serif" font-weight="400">
    <path d="M863.8 1135.374a.5.5 0 0 0-.408.227l-3.168 4.682a.5.5 0 0 0 .416.78h2.652l-5.75 5.154 1.96-3.867a.5.5 0 0 0-.445-.726h-3.05l3.471-5.477a.5.5 0 1 0-.843-.535l-3.959 6.245a.5.5 0 0 0 .422.767h3.144l-2.798 5.518a.5.5 0 0 0 .78.597l8.707-7.804a.5.5 0 0 0-.334-.872h-3.015l2.638-3.902a.5.5 0 0 0-.42-.787zm-13.232 10.496a.5.5 0 0 0-.223.068l-3.488 1.99a.5.5 0 1 0 .496.87l3.488-1.992a.5.5 0 0 0-.273-.937z" overflow="visible" style="line-height:normal;text-indent:0;text-align:start;text-decoration-line:none;text-decoration-style:solid;text-decoration-color:#000;text-transform:none;white-space:normal;isolation:auto;mix-blend-mode:normal;solid-color:#000;solid-opacity:1" transform="translate(-842.214 -1126.979)"></path>
    <path d="M848.841 1144.87a.5.5 0 0 0-.492.506v3.984a.5.5 0 1 0 1 0v-3.984a.5.5 0 0 0-.508-.506z" overflow="visible" style="line-height:normal;text-indent:0;text-align:start;text-decoration-line:none;text-decoration-style:solid;text-decoration-color:#000;text-transform:none;white-space:normal;isolation:auto;mix-blend-mode:normal;solid-color:#000;solid-opacity:1" transform="translate(-842.214 -1126.979)"></path>
    <path d="M847.066 1145.87a.5.5 0 0 0-.209.937l3.488 1.99a.5.5 0 1 0 .496-.868l-3.488-1.991a.5.5 0 0 0-.287-.068zm22.999 0a.5.5 0 0 0-.223.068l-3.488 1.99a.5.5 0 1 0 .496.87l3.488-1.992a.5.5 0 0 0-.273-.937z" overflow="visible" style="line-height:normal;text-indent:0;text-align:start;text-decoration-line:none;text-decoration-style:solid;text-decoration-color:#000;text-transform:none;white-space:normal;isolation:auto;mix-blend-mode:normal;solid-color:#000;solid-opacity:1" transform="translate(-842.214 -1126.979)"></path>
    <path d="M868.338 1144.87a.5.5 0 0 0-.492.506v3.984a.5.5 0 1 0 1 0v-3.984a.5.5 0 0 0-.508-.506z" overflow="visible" style="line-height:normal;text-indent:0;text-align:start;text-decoration-line:none;text-decoration-style:solid;text-decoration-color:#000;text-transform:none;white-space:normal;isolation:auto;mix-blend-mode:normal;solid-color:#000;solid-opacity:1" transform="translate(-842.214 -1126.979)"></path>
    <path d="M866.563 1145.87a.5.5 0 0 0-.209.937l3.488 1.99a.5.5 0 1 0 .496-.868l-3.488-1.991a.5.5 0 0 0-.287-.068zm-10.496 5.996a.5.5 0 0 0-.223.068l-3.487 1.99a.5.5 0 1 0 .496.87l3.487-1.991a.5.5 0 0 0-.273-.937z" overflow="visible" style="line-height:normal;text-indent:0;text-align:start;text-decoration-line:none;text-decoration-style:solid;text-decoration-color:#000;text-transform:none;white-space:normal;isolation:auto;mix-blend-mode:normal;solid-color:#000;solid-opacity:1" transform="translate(-842.214 -1126.979)"></path>
    <path d="M854.34 1150.864a.5.5 0 0 0-.492.508v3.984a.5.5 0 1 0 1 0v-3.984a.5.5 0 0 0-.507-.508z" overflow="visible" style="line-height:normal;text-indent:0;text-align:start;text-decoration-line:none;text-decoration-style:solid;text-decoration-color:#000;text-transform:none;white-space:normal;isolation:auto;mix-blend-mode:normal;solid-color:#000;solid-opacity:1" transform="translate(-842.214 -1126.979)"></path>
    <path d="M852.565 1151.866a.5.5 0 0 0-.208.937l3.487 1.99a.5.5 0 1 0 .496-.868l-3.487-1.99a.5.5 0 0 0-.288-.069zm12 0a.5.5 0 0 0-.222.068l-3.488 1.99a.5.5 0 1 0 .496.87l3.488-1.991a.5.5 0 0 0-.273-.937z" overflow="visible" style="line-height:normal;text-indent:0;text-align:start;text-decoration-line:none;text-decoration-style:solid;text-decoration-color:#000;text-transform:none;white-space:normal;isolation:auto;mix-blend-mode:normal;solid-color:#000;solid-opacity:1" transform="translate(-842.214 -1126.979)"></path>
    <path d="M862.84 1150.864a.5.5 0 0 0-.493.508v3.984a.5.5 0 1 0 1 0v-3.984a.5.5 0 0 0-.508-.508z" overflow="visible" style="line-height:normal;text-indent:0;text-align:start;text-decoration-line:none;text-decoration-style:solid;text-decoration-color:#000;text-transform:none;white-space:normal;isolation:auto;mix-blend-mode:normal;solid-color:#000;solid-opacity:1" transform="translate(-842.214 -1126.979)"></path>
    <path d="M861.064 1151.866a.5.5 0 0 0-.209.937l3.488 1.99a.5.5 0 1 0 .496-.868l-3.488-1.99a.5.5 0 0 0-.287-.069z" overflow="visible" style="line-height:normal;text-indent:0;text-align:start;text-decoration-line:none;text-decoration-style:solid;text-decoration-color:#000;text-transform:none;white-space:normal;isolation:auto;mix-blend-mode:normal;solid-color:#000;solid-opacity:1" transform="translate(-842.214 -1126.979)"></path>
  </g>
</svg>
