<svg xmlns="http://www.w3.org/2000/svg" width="32" height="32" id="snow">
  <path fill="#ffbbec" d="M27.874 16.843A12.375 12.375 0 0 1 15.5 29.218 12.375 12.375 0 0 1 3.124 16.843 12.375 12.375 0 0 1 15.5 4.468a12.375 12.375 0 0 1 12.375 12.375z"></path>
  <g fill="#3a3640" fill-rule="evenodd" color="#000" font-family="sans-serif" font-weight="400">
    <path d="M39.506 1025.611a.5.5 0 0 0-.274.07l-3.486 1.992a.5.5 0 1 0 .496.87l3.487-1.994a.5.5 0 0 0-.223-.938z" overflow="visible" style="line-height:normal;text-indent:0;text-align:start;text-decoration-line:none;text-decoration-style:solid;text-decoration-color:#000;text-transform:none;white-space:normal;isolation:auto;mix-blend-mode:normal;solid-color:#000;solid-opacity:1" transform="translate(-26.612 -1003.612)"></path>
    <path d="M37.73 1024.611a.5.5 0 0 0-.492.508v3.985a.5.5 0 1 0 1 0v-3.985a.5.5 0 0 0-.508-.508z" overflow="visible" style="line-height:normal;text-indent:0;text-align:start;text-decoration-line:none;text-decoration-style:solid;text-decoration-color:#000;text-transform:none;white-space:normal;isolation:auto;mix-blend-mode:normal;solid-color:#000;solid-opacity:1" transform="translate(-26.612 -1003.612)"></path>
    <path d="M36.004 1025.611a.5.5 0 0 0-.258.938l3.486 1.994a.5.5 0 1 0 .497-.87l-3.487-1.991a.5.5 0 0 0-.238-.07z" overflow="visible" style="line-height:normal;text-indent:0;text-align:start;text-decoration-line:none;text-decoration-style:solid;text-decoration-color:#000;text-transform:none;white-space:normal;isolation:auto;mix-blend-mode:normal;solid-color:#000;solid-opacity:1" transform="translate(-26.612 -1003.612)"></path>
    <path d="M39.506 1025.611a.5.5 0 0 0-.274.07l-3.486 1.992a.5.5 0 1 0 .496.87l3.487-1.994a.5.5 0 0 0-.223-.938z" overflow="visible" style="line-height:normal;text-indent:0;text-align:start;text-decoration-line:none;text-decoration-style:solid;text-decoration-color:#000;text-transform:none;white-space:normal;isolation:auto;mix-blend-mode:normal;solid-color:#000;solid-opacity:1" transform="translate(-11.112 -1003.612)"></path>
    <path d="M37.73 1024.611a.5.5 0 0 0-.492.508v3.985a.5.5 0 1 0 1 0v-3.985a.5.5 0 0 0-.508-.508z" overflow="visible" style="line-height:normal;text-indent:0;text-align:start;text-decoration-line:none;text-decoration-style:solid;text-decoration-color:#000;text-transform:none;white-space:normal;isolation:auto;mix-blend-mode:normal;solid-color:#000;solid-opacity:1" transform="translate(-11.112 -1003.612)"></path>
    <path d="M36.004 1025.611a.5.5 0 0 0-.258.938l3.486 1.994a.5.5 0 1 0 .497-.87l-3.487-1.991a.5.5 0 0 0-.238-.07z" overflow="visible" style="line-height:normal;text-indent:0;text-align:start;text-decoration-line:none;text-decoration-style:solid;text-decoration-color:#000;text-transform:none;white-space:normal;isolation:auto;mix-blend-mode:normal;solid-color:#000;solid-opacity:1" transform="translate(-11.112 -1003.612)"></path>
    <path d="M39.506 1025.611a.5.5 0 0 0-.274.07l-3.486 1.992a.5.5 0 1 0 .496.87l3.487-1.994a.5.5 0 0 0-.223-.938z" overflow="visible" style="line-height:normal;text-indent:0;text-align:start;text-decoration-line:none;text-decoration-style:solid;text-decoration-color:#000;text-transform:none;white-space:normal;isolation:auto;mix-blend-mode:normal;solid-color:#000;solid-opacity:1" transform="translate(-18.862 -999.612)"></path>
    <path d="M37.73 1024.611a.5.5 0 0 0-.492.508v3.985a.5.5 0 1 0 1 0v-3.985a.5.5 0 0 0-.508-.508z" overflow="visible" style="line-height:normal;text-indent:0;text-align:start;text-decoration-line:none;text-decoration-style:solid;text-decoration-color:#000;text-transform:none;white-space:normal;isolation:auto;mix-blend-mode:normal;solid-color:#000;solid-opacity:1" transform="translate(-18.862 -999.612)"></path>
    <path d="M36.004 1025.611a.5.5 0 0 0-.258.938l3.486 1.994a.5.5 0 1 0 .497-.87l-3.487-1.991a.5.5 0 0 0-.238-.07z" overflow="visible" style="line-height:normal;text-indent:0;text-align:start;text-decoration-line:none;text-decoration-style:solid;text-decoration-color:#000;text-transform:none;white-space:normal;isolation:auto;mix-blend-mode:normal;solid-color:#000;solid-opacity:1" transform="translate(-18.862 -999.612)"></path>
  </g>
  <path fill="#3a3640" d="M3750.89 1627.616c-.04 0-.08.01-.118.018-3.965 1.141-6.7 4.728-6.703 8.804 0 5.068 4.183 9.177 9.319 9.177 3.804 0 7.23-2.285 8.644-5.77a.5.5 0 0 0-.601-.668 8.45 8.45 0 0 1-2.338.334c-4.604 0-8.318-3.66-8.319-8.178 0-1.037.206-2.066.6-3.03a.5.5 0 0 0-.484-.687zm-.797 1.32a9.118 9.118 0 0 0-.319 2.397c0 5.068 4.183 9.18 9.319 9.18.514-.001 1.072-.047 1.578-.131a8.353 8.353 0 0 1-7.285 4.235c-4.605 0-8.319-3.659-8.319-8.177.075-3.885 2.524-6.419 5.024-7.504z" color="#000" font-family="sans-serif" font-weight="400" overflow="visible" style="line-height:normal;text-indent:0;text-align:start;text-decoration-line:none;text-decoration-style:solid;text-decoration-color:#000;text-transform:none;white-space:normal;isolation:auto;mix-blend-mode:normal;solid-color:#000;solid-opacity:1" transform="translate(-3734.194 -1625.615)"></path>
</svg>
