<svg xmlns="http://www.w3.org/2000/svg" width="32" height="32" id="snow">
  <path fill="#ffbbec" d="M29.253 14.884a12.375 12.375 0 0 1-12.375 12.375A12.375 12.375 0 0 1 4.503 14.884 12.375 12.375 0 0 1 16.878 2.509a12.375 12.375 0 0 1 12.375 12.375z"></path>
  <g fill="#3a3640" color="#000" font-family="sans-serif" font-weight="400">
    <path fill-rule="evenodd" d="M758.593 1503.98a.5.5 0 0 0-.492.508v1.486a.5.5 0 1 0 1 0v-1.486a.5.5 0 0 0-.508-.508zm0-15.5a.5.5 0 0 0-.492.508v1.486a.5.5 0 1 0 1 0v-1.486a.5.5 0 0 0-.508-.508zm-6.493 2.502a.5.5 0 0 0-.347.858l.988.99a.5.5 0 1 0 .707-.707l-.988-.99a.5.5 0 0 0-.36-.15zm12.985 0a.5.5 0 0 0-.344.15l-.988.991a.5.5 0 1 0 .707.707l.989-.99a.5.5 0 0 0-.364-.858zm-12 11a.5.5 0 0 0-.344.15l-.988.991a.5.5 0 1 0 .707.707l.988-.99a.5.5 0 0 0-.363-.858zm11.016 0a.5.5 0 0 0-.348.858l.988.99a.5.5 0 1 0 .708-.707l-.989-.99a.5.5 0 0 0-.36-.15z" overflow="visible" style="line-height:normal;text-indent:0;text-align:start;text-decoration-line:none;text-decoration-style:solid;text-decoration-color:#000;text-transform:none;white-space:normal;isolation:auto;mix-blend-mode:normal;solid-color:#000;solid-opacity:1" transform="translate(-745.853 -1486.98)"></path>
    <path d="M758.6 1502.23a4.758 4.758 0 0 1-4.75-4.75 4.758 4.758 0 0 1 4.75-4.75 4.758 4.758 0 0 1 4.75 4.75 4.758 4.758 0 0 1-4.75 4.75zm0-1a3.743 3.743 0 0 0 3.75-3.75 3.743 3.743 0 0 0-3.75-3.75 3.743 3.743 0 0 0-3.75 3.75 3.743 3.743 0 0 0 3.75 3.75z" overflow="visible" style="line-height:normal;text-indent:0;text-align:start;text-decoration-line:none;text-decoration-style:solid;text-decoration-color:#000;text-transform:none;white-space:normal;isolation:auto;mix-blend-mode:normal;solid-color:#000;solid-opacity:1" transform="translate(-745.853 -1486.98)"></path>
    <path fill-rule="evenodd" d="M752.101 1497.473a.5.5 0 0 0-.508-.492h-1.486a.5.5 0 1 0 0 1h1.486a.5.5 0 0 0 .508-.508zm15.5 0a.5.5 0 0 0-.507-.492h-1.487a.5.5 0 1 0 0 1h1.487a.5.5 0 0 0 .508-.508zm-14.982 12.008a.5.5 0 0 0-.274.07l-3.486 1.992a.5.5 0 1 0 .496.87l3.486-1.995a.5.5 0 0 0-.222-.937z" overflow="visible" style="line-height:normal;text-indent:0;text-align:start;text-decoration-line:none;text-decoration-style:solid;text-decoration-color:#000;text-transform:none;white-space:normal;isolation:auto;mix-blend-mode:normal;solid-color:#000;solid-opacity:1" transform="translate(-745.853 -1486.98)"></path>
    <path fill-rule="evenodd" d="M750.843 1508.48a.5.5 0 0 0-.492.509v3.984a.5.5 0 1 0 1 0v-3.984a.5.5 0 0 0-.508-.508z" overflow="visible" style="line-height:normal;text-indent:0;text-align:start;text-decoration-line:none;text-decoration-style:solid;text-decoration-color:#000;text-transform:none;white-space:normal;isolation:auto;mix-blend-mode:normal;solid-color:#000;solid-opacity:1" transform="translate(-745.853 -1486.98)"></path>
    <path fill-rule="evenodd" d="M749.116 1509.48a.5.5 0 0 0-.257.938l3.486 1.995a.5.5 0 1 0 .496-.87l-3.486-1.992a.5.5 0 0 0-.239-.07zm19.003 0a.5.5 0 0 0-.273.07l-3.487 1.993a.5.5 0 1 0 .496.87l3.487-1.995a.5.5 0 0 0-.223-.937z" overflow="visible" style="line-height:normal;text-indent:0;text-align:start;text-decoration-line:none;text-decoration-style:solid;text-decoration-color:#000;text-transform:none;white-space:normal;isolation:auto;mix-blend-mode:normal;solid-color:#000;solid-opacity:1" transform="translate(-745.853 -1486.98)"></path>
    <path fill-rule="evenodd" d="M766.344 1508.48a.5.5 0 0 0-.492.509v3.984a.5.5 0 1 0 1 0v-3.984a.5.5 0 0 0-.508-.508z" overflow="visible" style="line-height:normal;text-indent:0;text-align:start;text-decoration-line:none;text-decoration-style:solid;text-decoration-color:#000;text-transform:none;white-space:normal;isolation:auto;mix-blend-mode:normal;solid-color:#000;solid-opacity:1" transform="translate(-745.853 -1486.98)"></path>
    <path fill-rule="evenodd" d="M764.617 1509.48a.5.5 0 0 0-.258.938l3.487 1.995a.5.5 0 1 0 .496-.87l-3.487-1.992a.5.5 0 0 0-.238-.07zm-4.248 4a.5.5 0 0 0-.274.07l-3.486 1.993a.5.5 0 1 0 .496.87l3.487-1.995a.5.5 0 0 0-.223-.938z" overflow="visible" style="line-height:normal;text-indent:0;text-align:start;text-decoration-line:none;text-decoration-style:solid;text-decoration-color:#000;text-transform:none;white-space:normal;isolation:auto;mix-blend-mode:normal;solid-color:#000;solid-opacity:1" transform="translate(-745.853 -1486.98)"></path>
    <path fill-rule="evenodd" d="M758.593 1512.48a.5.5 0 0 0-.492.509v3.984a.5.5 0 1 0 1 0v-3.984a.5.5 0 0 0-.508-.508z" overflow="visible" style="line-height:normal;text-indent:0;text-align:start;text-decoration-line:none;text-decoration-style:solid;text-decoration-color:#000;text-transform:none;white-space:normal;isolation:auto;mix-blend-mode:normal;solid-color:#000;solid-opacity:1" transform="translate(-745.853 -1486.98)"></path>
    <path fill-rule="evenodd" d="M756.867 1513.48a.5.5 0 0 0-.258.938l3.486 1.995a.5.5 0 1 0 .497-.87l-3.487-1.992a.5.5 0 0 0-.238-.07z" overflow="visible" style="line-height:normal;text-indent:0;text-align:start;text-decoration-line:none;text-decoration-style:solid;text-decoration-color:#000;text-transform:none;white-space:normal;isolation:auto;mix-blend-mode:normal;solid-color:#000;solid-opacity:1" transform="translate(-745.853 -1486.98)"></path>
  </g>
</svg>
