<svg xmlns="http://www.w3.org/2000/svg" width="32" height="32" id="snow">
  <path d="M3499.319 1640.708a12.375 12.375 0 0 1-12.375 12.375 12.375 12.375 0 0 1-12.375-12.375 12.375 12.375 0 0 1 12.375-12.375 12.375 12.375 0 0 1 12.375 12.375z" style="opacity:1;fill:#ffbbec;fill-opacity:1;stroke:none;stroke-width:1;stroke-linecap:round;stroke-linejoin:round;stroke-miterlimit:4;stroke-dasharray:none;stroke-dashoffset:0;stroke-opacity:1" transform="translate(-3470.133 -1625.981)"></path>
  <g style="fill:#3a3640;fill-opacity:1">
    <path d="M719.522 1711.379c-2.588-.067-4.586 1.545-5.649 3.28-2.128-.598-3.849-.156-4.998.988a5.165 5.165 0 0 0-1.17 5.434c.7 1.886 2.435 3.18 4.418 3.283h1.754c.676.01.676-1.01 0-1h-1.703c-1.58-.082-2.966-1.11-3.531-2.633a4.165 4.165 0 0 1 .94-4.38c.96-.956 2.287-1.32 4.357-.63.229.077.48-.02.597-.232.898-1.635 2.684-3.17 4.953-3.113h.006c.442.017.884.102 1.319.264 1.696.63 2.918 2.118 3.33 3.89.151.649 1.126.422.975-.227-.484-2.076-1.925-3.846-3.956-4.6-.593-.2-1.084-.301-1.642-.326z" style="color:#000;font-style:normal;font-variant:normal;font-weight:400;font-stretch:normal;font-size:medium;line-height:normal;font-family:sans-serif;text-indent:0;text-align:start;text-decoration:none;text-decoration-line:none;text-decoration-style:solid;text-decoration-color:#000;letter-spacing:normal;word-spacing:normal;text-transform:none;direction:ltr;writing-mode:lr-tb;baseline-shift:baseline;text-anchor:start;white-space:normal;clip-rule:nonzero;display:inline;overflow:visible;visibility:visible;opacity:1;isolation:auto;mix-blend-mode:normal;color-interpolation:sRGB;color-interpolation-filters:linearRGB;solid-color:#000;solid-opacity:1;fill:#3a3640;fill-opacity:1;fill-rule:nonzero;stroke:none;stroke-width:1;stroke-linecap:round;stroke-linejoin:round;stroke-miterlimit:4;stroke-dasharray:none;stroke-dashoffset:0;stroke-opacity:1;color-rendering:auto;image-rendering:auto;shape-rendering:auto;text-rendering:auto;enable-background:accumulate" transform="translate(-704.568 -1707.728)"></path>
    <path d="M725.588 1715.878c-2.233-.105-4.421 1.195-5.687 3.16-2.057-.66-3.849-.158-5.008.922-.001 0-.003 0-.004.01a4.828 4.828 0 0 0-1.18 5.245c.709 1.82 2.451 3.053 4.434 3.152H725.334a.498.498 0 0 0 .227-.055c2.887-.197 5.29-2.345 5.744-5.238a6.272 6.272 0 0 0-4.078-6.882c-.58-.225-1.176-.289-1.639-.31zm-.047.999c.411.019.913.08 1.33.242.005 0 .01 0 .014.01a5.267 5.267 0 0 1 3.434 5.79 5.24 5.24 0 0 1-5.004 4.439c-.027.001-.053 0-.078.01h-7.05c-1.595-.082-2.984-1.072-3.546-2.516-.563-1.445-.197-3.07.94-4.157 0 0-.001 0 0 0 .961-.893 2.415-1.286 4.37-.584.226.075.51-.055.627-.261 1.04-1.845 3.074-3.055 4.963-2.967z" style="color:#000;font-style:normal;font-variant:normal;font-weight:400;font-stretch:normal;font-size:medium;line-height:normal;font-family:sans-serif;text-indent:0;text-align:start;text-decoration:none;text-decoration-line:none;text-decoration-style:solid;text-decoration-color:#000;letter-spacing:normal;word-spacing:normal;text-transform:none;direction:ltr;writing-mode:lr-tb;baseline-shift:baseline;text-anchor:start;white-space:normal;clip-rule:nonzero;display:inline;overflow:visible;visibility:visible;opacity:1;isolation:auto;mix-blend-mode:normal;color-interpolation:sRGB;color-interpolation-filters:linearRGB;solid-color:#000;solid-opacity:1;fill:#3a3640;fill-opacity:1;fill-rule:nonzero;stroke:none;stroke-width:1;stroke-linecap:round;stroke-linejoin:round;stroke-miterlimit:4;stroke-dasharray:none;stroke-dashoffset:0;stroke-opacity:1;color-rendering:auto;image-rendering:auto;shape-rendering:auto;text-rendering:auto;enable-background:accumulate" transform="translate(-704.568 -1707.728)"></path>
    <path d="M720.35 1729.368a.5.5 0 0 0-.368.205l-3 3.994a.5.5 0 0 0 .522.784l2.63-.661-2.152 2.867a.5.5 0 1 0 .8.6l3-3.995a.5.5 0 0 0-.522-.784l-2.631.662 2.152-2.868a.5.5 0 0 0-.431-.804z" style="color:#000;font-style:normal;font-variant:normal;font-weight:400;font-stretch:normal;font-size:medium;line-height:normal;font-family:sans-serif;text-indent:0;text-align:start;text-decoration:none;text-decoration-line:none;text-decoration-style:solid;text-decoration-color:#000;letter-spacing:normal;word-spacing:normal;text-transform:none;direction:ltr;writing-mode:lr-tb;baseline-shift:baseline;text-anchor:start;white-space:normal;clip-rule:nonzero;display:inline;overflow:visible;visibility:visible;opacity:1;isolation:auto;mix-blend-mode:normal;color-interpolation:sRGB;color-interpolation-filters:linearRGB;solid-color:#000;solid-opacity:1;fill:#3a3640;fill-opacity:1;fill-rule:evenodd;stroke:none;stroke-width:.99999994px;stroke-linecap:round;stroke-linejoin:round;stroke-miterlimit:4;stroke-dasharray:none;stroke-dashoffset:0;stroke-opacity:1;color-rendering:auto;image-rendering:auto;shape-rendering:auto;text-rendering:auto;enable-background:accumulate" transform="translate(-704.568 -1707.728)"></path>
    <path d="M713.35 1731.866a.5.5 0 0 0-.223.068l-3.486 1.992a.5.5 0 1 0 .496.868l3.486-1.99a.5.5 0 0 0-.273-.938z" style="color:#000;font-style:normal;font-variant:normal;font-weight:400;font-stretch:normal;font-size:medium;line-height:normal;font-family:sans-serif;text-indent:0;text-align:start;text-decoration:none;text-decoration-line:none;text-decoration-style:solid;text-decoration-color:#000;letter-spacing:normal;word-spacing:normal;text-transform:none;direction:ltr;writing-mode:lr-tb;baseline-shift:baseline;text-anchor:start;white-space:normal;clip-rule:nonzero;display:inline;overflow:visible;visibility:visible;opacity:1;isolation:auto;mix-blend-mode:normal;color-interpolation:sRGB;color-interpolation-filters:linearRGB;solid-color:#000;solid-opacity:1;fill:#3a3640;fill-opacity:1;fill-rule:evenodd;stroke:none;stroke-width:.9999941;stroke-linecap:round;stroke-linejoin:round;stroke-miterlimit:4;stroke-dasharray:none;stroke-dashoffset:0;stroke-opacity:1;color-rendering:auto;image-rendering:auto;shape-rendering:auto;text-rendering:auto;enable-background:accumulate" transform="translate(-704.568 -1707.728)"></path>
    <path d="M711.625 1730.865a.5.5 0 0 0-.494.507v3.985a.5.5 0 1 0 1 0v-3.985a.5.5 0 0 0-.506-.507z" style="color:#000;font-style:normal;font-variant:normal;font-weight:400;font-stretch:normal;font-size:medium;line-height:normal;font-family:sans-serif;text-indent:0;text-align:start;text-decoration:none;text-decoration-line:none;text-decoration-style:solid;text-decoration-color:#000;letter-spacing:normal;word-spacing:normal;text-transform:none;direction:ltr;writing-mode:lr-tb;baseline-shift:baseline;text-anchor:start;white-space:normal;clip-rule:nonzero;display:inline;overflow:visible;visibility:visible;opacity:1;isolation:auto;mix-blend-mode:normal;color-interpolation:sRGB;color-interpolation-filters:linearRGB;solid-color:#000;solid-opacity:1;fill:#3a3640;fill-opacity:1;fill-rule:evenodd;stroke:none;stroke-width:.9999941;stroke-linecap:round;stroke-linejoin:round;stroke-miterlimit:4;stroke-dasharray:none;stroke-dashoffset:0;stroke-opacity:1;color-rendering:auto;image-rendering:auto;shape-rendering:auto;text-rendering:auto;enable-background:accumulate" transform="translate(-704.568 -1707.728)"></path>
    <path d="M709.848 1731.866a.5.5 0 0 0-.207.937l3.486 1.991a.5.5 0 1 0 .496-.868l-3.486-1.991a.5.5 0 0 0-.29-.068zM728.85 1731.866a.5.5 0 0 0-.223.068l-3.486 1.992a.5.5 0 1 0 .496.868l3.486-1.99a.5.5 0 0 0-.273-.938z" style="color:#000;font-style:normal;font-variant:normal;font-weight:400;font-stretch:normal;font-size:medium;line-height:normal;font-family:sans-serif;text-indent:0;text-align:start;text-decoration:none;text-decoration-line:none;text-decoration-style:solid;text-decoration-color:#000;letter-spacing:normal;word-spacing:normal;text-transform:none;direction:ltr;writing-mode:lr-tb;baseline-shift:baseline;text-anchor:start;white-space:normal;clip-rule:nonzero;display:inline;overflow:visible;visibility:visible;opacity:1;isolation:auto;mix-blend-mode:normal;color-interpolation:sRGB;color-interpolation-filters:linearRGB;solid-color:#000;solid-opacity:1;fill:#3a3640;fill-opacity:1;fill-rule:evenodd;stroke:none;stroke-width:.9999941;stroke-linecap:round;stroke-linejoin:round;stroke-miterlimit:4;stroke-dasharray:none;stroke-dashoffset:0;stroke-opacity:1;color-rendering:auto;image-rendering:auto;shape-rendering:auto;text-rendering:auto;enable-background:accumulate" transform="translate(-704.568 -1707.728)"></path>
    <path d="M727.125 1730.865a.5.5 0 0 0-.494.507v3.985a.5.5 0 1 0 1 0v-3.985a.5.5 0 0 0-.506-.507z" style="color:#000;font-style:normal;font-variant:normal;font-weight:400;font-stretch:normal;font-size:medium;line-height:normal;font-family:sans-serif;text-indent:0;text-align:start;text-decoration:none;text-decoration-line:none;text-decoration-style:solid;text-decoration-color:#000;letter-spacing:normal;word-spacing:normal;text-transform:none;direction:ltr;writing-mode:lr-tb;baseline-shift:baseline;text-anchor:start;white-space:normal;clip-rule:nonzero;display:inline;overflow:visible;visibility:visible;opacity:1;isolation:auto;mix-blend-mode:normal;color-interpolation:sRGB;color-interpolation-filters:linearRGB;solid-color:#000;solid-opacity:1;fill:#3a3640;fill-opacity:1;fill-rule:evenodd;stroke:none;stroke-width:.9999941;stroke-linecap:round;stroke-linejoin:round;stroke-miterlimit:4;stroke-dasharray:none;stroke-dashoffset:0;stroke-opacity:1;color-rendering:auto;image-rendering:auto;shape-rendering:auto;text-rendering:auto;enable-background:accumulate" transform="translate(-704.568 -1707.728)"></path>
    <path d="M725.348 1731.866a.5.5 0 0 0-.207.937l3.486 1.991a.5.5 0 1 0 .496-.868l-3.486-1.991a.5.5 0 0 0-.29-.068z" style="color:#000;font-style:normal;font-variant:normal;font-weight:400;font-stretch:normal;font-size:medium;line-height:normal;font-family:sans-serif;text-indent:0;text-align:start;text-decoration:none;text-decoration-line:none;text-decoration-style:solid;text-decoration-color:#000;letter-spacing:normal;word-spacing:normal;text-transform:none;direction:ltr;writing-mode:lr-tb;baseline-shift:baseline;text-anchor:start;white-space:normal;clip-rule:nonzero;display:inline;overflow:visible;visibility:visible;opacity:1;isolation:auto;mix-blend-mode:normal;color-interpolation:sRGB;color-interpolation-filters:linearRGB;solid-color:#000;solid-opacity:1;fill:#3a3640;fill-opacity:1;fill-rule:evenodd;stroke:none;stroke-width:.9999941;stroke-linecap:round;stroke-linejoin:round;stroke-miterlimit:4;stroke-dasharray:none;stroke-dashoffset:0;stroke-opacity:1;color-rendering:auto;image-rendering:auto;shape-rendering:auto;text-rendering:auto;enable-background:accumulate" transform="translate(-704.568 -1707.728)"></path>
  </g>
</svg>
