<svg xmlns="http://www.w3.org/2000/svg" width="32" height="32" id="storm">
  <path fill="#ffbbec" d="M28.907 15.125A12.375 12.375 0 0 1 16.532 27.5 12.375 12.375 0 0 1 4.157 15.125 12.375 12.375 0 0 1 16.532 2.75a12.375 12.375 0 0 1 12.375 12.375z"></path>
  <path fill="#3a3640" fill-rule="evenodd" d="M643.845 1688.361a.5.5 0 0 0-.425.281l-1.993 3.99a.5.5 0 1 0 .895.447l1.992-3.99a.5.5 0 0 0-.469-.728zm-4 1a.5.5 0 0 0-.425.282l-3.992 7.99a.5.5 0 1 0 .894.447l3.992-7.99a.5.5 0 0 0-.469-.729zm-4 1a.5.5 0 0 0-.425.282l-1.992 3.989a.5.5 0 1 0 .894.447l1.992-3.989a.5.5 0 0 0-.468-.728zm18.026-9.999a.5.5 0 1 0 0 1c.558 0 1 .442 1 1a.99.99 0 0 1-1.002.997.5.5 0 1 0 .004 1c1.108 0 2.002-.91 1.998-2 0-1.1-.902-2-2-2zm-7.498-8.005c1.108 0 2.002.912 1.998 2.002a2.008 2.008 0 0 1-2 1.998h-5.5a.5.5 0 1 1 0-1h5.5c.558 0 1-.442 1-1a.99.99 0 0 0-1.002-.998.5.5 0 1 1 .004-1zm3.498 4c-.677-.01-.677 1.01 0 1.001h1c.558 0 1 .442 1 1a.994.994 0 0 1-1.004 1.001H632.87c-1.099 0-2 .902-2 2.001 0 1.11.91 1.989 1.994 2.002h14.506c.558 0 1 .442 1 1a.99.99 0 0 1-1.002.997h-.998c-.677-.01-.677 1.01 0 1h1.002c1.108 0 2.002-.91 1.998-2 0-1.1-.902-2.002-2-2.002h-14.494c-.565-.01-1.006-.429-1.006-1 0-.559.442-1.001 1-1.001h18.004a2.016 2.016 0 0 0 1.996-1.997c0-1.1-.902-2.002-2-2.002z" color="#000" font-family="sans-serif" font-weight="400" overflow="visible" style="line-height:normal;text-indent:0;text-align:start;text-decoration-line:none;text-decoration-style:solid;text-decoration-color:#000;text-transform:none;white-space:normal;isolation:auto;mix-blend-mode:normal;solid-color:#000;solid-opacity:1" transform="translate(-627.778 -1669.107)"></path>
</svg>
