<svg xmlns="http://www.w3.org/2000/svg" width="32" height="32" id="storm">
  <path fill="#ffcc71" d="M28.375 13.923A12.375 12.375 0 0 1 16 26.298 12.375 12.375 0 0 1 3.625 13.923 12.375 12.375 0 0 1 16 1.548a12.375 12.375 0 0 1 12.375 12.375z"></path>
  <g fill="#3a3640" color="#000" font-family="sans-serif" font-weight="400">
    <path fill-rule="evenodd" d="M607.842 1242.861a.5.5 0 0 0-.492.508v1.487a.5.5 0 1 0 1 0v-1.487a.5.5 0 0 0-.508-.508zm-6.492 2.502a.5.5 0 0 0-.348.858l.989.99a.5.5 0 1 0 .707-.707l-.988-.99a.5.5 0 0 0-.36-.15zm12.985 0a.5.5 0 0 0-.344.15l-.989.99a.5.5 0 1 0 .708.708l.988-.99a.5.5 0 0 0-.363-.858zm-12 11a.5.5 0 0 0-.344.15l-.989.99a.5.5 0 1 0 .708.708l.988-.99a.5.5 0 0 0-.363-.858zm11.015 0a.5.5 0 0 0-.348.858l.989.99a.5.5 0 1 0 .707-.707l-.988-.99a.5.5 0 0 0-.36-.15z" overflow="visible" style="line-height:normal;text-indent:0;text-align:start;text-decoration-line:none;text-decoration-style:solid;text-decoration-color:#000;text-transform:none;white-space:normal;isolation:auto;mix-blend-mode:normal;solid-color:#000;solid-opacity:1" transform="matrix(.99992 0 0 1.00016 -591.674 -1236.612)"></path>
    <path d="M607.85 1256.613a4.758 4.758 0 0 1-4.75-4.75 4.758 4.758 0 0 1 4.75-4.75 4.758 4.758 0 0 1 4.75 4.75 4.758 4.758 0 0 1-4.75 4.75zm0-1a3.742 3.742 0 0 0 3.75-3.75 3.742 3.742 0 0 0-3.75-3.75 3.742 3.742 0 0 0-3.75 3.75 3.742 3.742 0 0 0 3.75 3.75z" overflow="visible" style="line-height:normal;text-indent:0;text-align:start;text-decoration-line:none;text-decoration-style:solid;text-decoration-color:#000;text-transform:none;white-space:normal;isolation:auto;mix-blend-mode:normal;solid-color:#000;solid-opacity:1" transform="matrix(.99992 0 0 1.00016 -591.674 -1236.612)"></path>
    <path fill-rule="evenodd" d="M601.35 1251.854a.5.5 0 0 0-.507-.492h-1.486a.5.5 0 1 0 0 1h1.486a.5.5 0 0 0 .508-.508zm15.5 0a.5.5 0 0 0-.507-.492h-1.486a.5.5 0 1 0 0 1h1.486a.5.5 0 0 0 .508-.508zm-9.031 7.01a.5.5 0 0 0-.37.204l-3 3.996a.5.5 0 0 0 .522.786l2.631-.662-2.152 2.869a.5.5 0 1 0 .8.6l3-3.997a.5.5 0 0 0-.52-.785l-2.632.662 2.153-2.869a.5.5 0 0 0-.432-.805z" overflow="visible" style="line-height:normal;text-indent:0;text-align:start;text-decoration-line:none;text-decoration-style:solid;text-decoration-color:#000;text-transform:none;white-space:normal;isolation:auto;mix-blend-mode:normal;solid-color:#000;solid-opacity:1" transform="matrix(.99992 0 0 1.00016 -591.674 -1236.612)"></path>
  </g>
</svg>
