<svg xmlns="http://www.w3.org/2000/svg" width="32" height="32" id="sun">
  <path fill="#ffcc71" d="M31.503 16a12.375 12.375 0 0 1-12.375 12.375A12.375 12.375 0 0 1 6.753 16 12.375 12.375 0 0 1 19.128 3.625 12.375 12.375 0 0 1 31.503 16z"></path>
  <g fill="#3a3640" color="#000" font-family="sans-serif" font-weight="400">
    <path d="M-2673.887 1989.143c-2.283-.743-4.321-.294-5.73 1.061a5.666 5.666 0 0 0-1.333 6.059 5.683 5.683 0 0 0 5.022 3.652h8.256c3.85-.151 6.338-3.171 6.768-6.15.524-3.452-1.415-6.813-4.631-7.983-.644-.242-1.27-.319-1.844-.361-3.069-.081-5.33 1.817-6.504 3.718zm6.443-2.718c.533.04 1.049.108 1.551.297 3.346 1.296 4.375 4.607 3.994 6.904-.485 3.34-3.49 5.342-5.79 5.293h-8.196a4.678 4.678 0 0 1-4.133-3.008 4.66 4.66 0 0 1 1.094-4.986c1.201-1.155 3.004-1.478 5.074-.71a.5.5 0 0 0 .615-.234c1.019-1.777 2.938-3.557 5.791-3.556z" overflow="visible" style="line-height:normal;text-indent:0;text-align:start;text-decoration-line:none;text-decoration-style:solid;text-decoration-color:#000;text-transform:none;white-space:normal;isolation:auto;mix-blend-mode:normal;solid-color:#000;solid-opacity:1" transform="translate(2681.815 -1971.942)"></path>
    <path fill-rule="evenodd" d="M-2661.201 1979.415a.5.5 0 0 0-.492.508v1.984a.5.5 0 1 0 1 0v-1.984a.5.5 0 0 0-.508-.508zm6.89 8.88a.5.5 0 1 0 0 1h1.985a.5.5 0 1 0 0-1zm-.536-6.361a.5.5 0 0 0-.344.152l-1.49 1.49a.5.5 0 1 0 .707.707l1.49-1.49a.5.5 0 0 0-.363-.86zm-12.622 0a.5.5 0 0 0-.35.859l1.491 1.49a.5.5 0 1 0 .707-.709l-1.49-1.488a.5.5 0 0 0-.358-.152zm11.137 11.136a.5.5 0 0 0-.35.86l1.49 1.49a.5.5 0 1 0 .708-.707l-1.49-1.49a.5.5 0 0 0-.358-.153z" overflow="visible" style="line-height:normal;text-indent:0;text-align:start;text-decoration-line:none;text-decoration-style:solid;text-decoration-color:#000;text-transform:none;white-space:normal;isolation:auto;mix-blend-mode:normal;solid-color:#000;solid-opacity:1" transform="translate(2681.815 -1971.942)"></path>
    <path d="M-2661.195 1983.967c-.841 0-1.65.226-2.356.63a.5.5 0 1 0 .496.868 3.742 3.742 0 0 1 5.611 3.252c0 1.038-.42 1.973-1.099 2.652-.34.34-.743.615-1.191.805a.5.5 0 1 0 .39.92 4.753 4.753 0 0 0-1.851-9.127z" overflow="visible" style="line-height:normal;text-indent:0;text-align:start;text-decoration-line:none;text-decoration-style:solid;text-decoration-color:#000;text-transform:none;white-space:normal;isolation:auto;mix-blend-mode:normal;solid-color:#000;solid-opacity:1" transform="translate(2681.815 -1971.942)"></path>
  </g>
</svg>
